<svg id="Ebene_1" data-name="Ebene 1" xmlns="http://www.w3.org/2000/svg" viewBox="0 0 555 91"><defs><style>.cls-1{fill:#fff;}.cls-2{fill:#dd1843;}</style></defs><title>Zeichenfläche 1</title><g id="logo"><path id="Wordmark" class="cls-1" d="M163.87,67.31V37.2L151.42,60h-3.66L135.25,37.2V67.31h-6.61V25.48h7.08l13.87,25.57,13.87-25.57h7.08V67.31ZM196,46.69a18.05,18.05,0,0,0,.91,5.71,15.14,15.14,0,0,0,2.63,4.89,12.78,12.78,0,0,0,4.13,3.39A11.45,11.45,0,0,0,209.07,62a11.31,11.31,0,0,0,5.51-1.33,12.9,12.9,0,0,0,4.13-3.5,16.25,16.25,0,0,0,2.57-4.89,17.69,17.69,0,0,0,.88-5.54,17.51,17.51,0,0,0-.94-5.75,15.71,15.71,0,0,0-2.65-4.83,13.29,13.29,0,0,0-4.13-3.36,12.14,12.14,0,0,0-10.89.06,13.23,13.23,0,0,0-4.13,3.45,15.44,15.44,0,0,0-2.57,4.86,18.17,18.17,0,0,0-.88,5.57ZM209,67.9A17.9,17.9,0,0,1,201,66.1a20,20,0,0,1-6.25-4.77,21.38,21.38,0,0,1-4-6.81,22.28,22.28,0,0,1-1.42-7.83,21.84,21.84,0,0,1,1.5-8,22.29,22.29,0,0,1,4.16-6.77,19.79,19.79,0,0,1,6.32-4.68,18.29,18.29,0,0,1,8-1.74,17.54,17.54,0,0,1,8.06,1.85,20.43,20.43,0,0,1,6.22,4.86,22.32,22.32,0,0,1,3.93,22.57,21.81,21.81,0,0,1-4.16,6.75,20.42,20.42,0,0,1-6.29,4.65A18.09,18.09,0,0,1,209,67.9Zm62.42-13.26a5.07,5.07,0,0,0-1.12-3.3A3.53,3.53,0,0,0,267.47,50H256.32v9.13h10.74a4.24,4.24,0,0,0,3.13-1.24,4.39,4.39,0,0,0,1.24-3.24ZM256.32,33.73v8.66h9.5a4.25,4.25,0,0,0,2.83-1.06,4.11,4.11,0,0,0,1.24-3.3,4.34,4.34,0,0,0-1.09-3.18,3.49,3.49,0,0,0-2.62-1.12Zm25,22.86a9.46,9.46,0,0,1-1.12,4.71,9.7,9.7,0,0,1-3.07,3.33,14.56,14.56,0,0,1-4.54,2,21.73,21.73,0,0,1-5.49.68H246.65V25.47H270a8.38,8.38,0,0,1,4,1,10,10,0,0,1,3,2.44,11.21,11.21,0,0,1,1.91,3.42,11.47,11.47,0,0,1,.68,3.92,11.22,11.22,0,0,1-1.5,5.65,9.5,9.5,0,0,1-4.52,4,10.92,10.92,0,0,1,5.7,3.77,11.09,11.09,0,0,1,2.09,6.95Zm45.84,2.24v8.48H297.67V25.48h28.92V34H307.35v8.13h16.52v7.84H307.35v8.9Zm28.07-13.44H364A3.64,3.64,0,0,0,367,43.77a6.61,6.61,0,0,0,1.24-4.15,5.84,5.84,0,0,0-1.42-4.13A4.15,4.15,0,0,0,363.74,34h-8.55Zm-9.68,21.92V25.47h18.88a12.23,12.23,0,0,1,5.46,1.24A14.55,14.55,0,0,1,374.19,30a15.36,15.36,0,0,1,2.86,4.54,13.46,13.46,0,0,1,1,5.13,14.58,14.58,0,0,1-1.83,7.13,12.81,12.81,0,0,1-5,5l9.62,15.56H369.94L361.5,53.82h-6.31V67.31Zm60.71-21.92h8.85A3.64,3.64,0,0,0,418,43.77a6.67,6.67,0,0,0,1.24-4.15,5.88,5.88,0,0,0-1.42-4.13A4.15,4.15,0,0,0,414.77,34h-8.55Zm-9.68,21.92V25.47h18.88a12.23,12.23,0,0,1,5.46,1.24A14.55,14.55,0,0,1,425.22,30a15.36,15.36,0,0,1,2.86,4.54,13.46,13.46,0,0,1,1,5.13,14.58,14.58,0,0,1-1.83,7.13,12.88,12.88,0,0,1-5,5l9.61,15.56H421l-8.44-13.49h-6.31V67.31Zm51,0h9.67V25.48h-9.67Zm61.33-8.48v8.48H479.46V25.48h28.91V34H489.14v8.13h16.52v7.84H489.14v8.9Zm40.16-20.74a8.34,8.34,0,0,0-1.29-.89,22.9,22.9,0,0,0-2.66-1.35,25.27,25.27,0,0,0-3.48-1.24,13.8,13.8,0,0,0-3.78-.53,6.82,6.82,0,0,0-3.8.88,2.92,2.92,0,0,0-1.33,2.6,2.67,2.67,0,0,0,.59,1.76A5.22,5.22,0,0,0,535,40.59a15.38,15.38,0,0,0,2.72,1c1.08.32,2.33.67,3.74,1.06a49.35,49.35,0,0,1,5.43,1.8A15.18,15.18,0,0,1,551,46.89a9.87,9.87,0,0,1,2.63,3.51,12.19,12.19,0,0,1,.91,5,12.32,12.32,0,0,1-1.33,6,11.1,11.1,0,0,1-3.51,4,14.82,14.82,0,0,1-5,2.18,25.53,25.53,0,0,1-5.87.68,31.36,31.36,0,0,1-4.69-.36,33.79,33.79,0,0,1-4.69-1,39.37,39.37,0,0,1-4.49-1.62,24.29,24.29,0,0,1-4-2.18l4.25-8.43a11,11,0,0,0,1.59,1.12A23.9,23.9,0,0,0,530,57.29a32.61,32.61,0,0,0,4.24,1.48,18,18,0,0,0,4.78.64q5.14,0,5.14-3.12a2.64,2.64,0,0,0-.77-1.94A7.41,7.41,0,0,0,541.22,53,24.28,24.28,0,0,0,538,51.81c-1.34-.38-2.68-.78-4-1.18a33.77,33.77,0,0,1-5-1.91,13.88,13.88,0,0,1-3.54-2.39,8.37,8.37,0,0,1-2.09-3.12,11.3,11.3,0,0,1-.68-4.12,13.1,13.1,0,0,1,1.24-5.84A12.6,12.6,0,0,1,527.29,29a14.65,14.65,0,0,1,4.93-2.62,19.54,19.54,0,0,1,5.93-.88,23.19,23.19,0,0,1,4.36.41,31.46,31.46,0,0,1,7.68,2.53q1.71.82,3.06,1.65l-4.19,8Z"/><g id="Berry"><path id="Shape" class="cls-2" d="M53.28,49.29c0,9.5-6.31,17.49-15.4,19.25-6.23,1.2-11.63-.69-16.09-5.08A20.21,20.21,0,0,1,23.35,33.6c9.62-7.73,23.77-3.77,28.47,8a19,19,0,0,1,1.46,7.71Z"/><path id="Shape-2" data-name="Shape" class="cls-2" d="M9.26,68.3a15.38,15.38,0,0,1,4-10.88c1-1.12,1.06-1.1,1.62.27,2.92,7,8,11.59,15.5,13.37a19.25,19.25,0,0,0,4.85.41c1.47,0,1.48,0,1,1.42a14,14,0,0,1-13.08,9.45,14.13,14.13,0,0,1-13-9.85,13.24,13.24,0,0,1-.79-4.19m53-51.38A20.79,20.79,0,0,1,52.14,34.14c-.82.52-1.36.61-2.08-.24a18,18,0,0,0-5.24-4.22c-.56-.31-.68-.6-.37-1.2a105.75,105.75,0,0,0,5.9-14.77c1.49-4.39,3.38-8.56,6.61-12,.27-.29.56-.55.84-.83.42-.44.71-.39.93.19,1.82,5,3.45,10,3.57,15.87"/><path id="Shape-3" data-name="Shape" class="cls-2" d="M57.63.37c-.31.33-.42.48-.56.6a25.59,25.59,0,0,0-7,9.26c-2,4.23-3.8,8.56-6.06,12.67a42.44,42.44,0,0,1-2.62,4.22,1.2,1.2,0,0,1-1.49.55,17.46,17.46,0,0,0-6.82-.6c-.88.12-1-.32-1.15-1.06A21.07,21.07,0,0,1,46,3.13,66.71,66.71,0,0,1,56.66.38a7,7,0,0,1,1,0M.43,49A17.45,17.45,0,0,1,7.49,34.84a14,14,0,0,1,6.44-2.58,1.72,1.72,0,0,1,1.61.5c.79.77,2.12,1.35,2.35,2.22s-1,1.82-1.58,2.77a23.16,23.16,0,0,0-2.79,14.9,1.33,1.33,0,0,1-.57,1.4,17.09,17.09,0,0,0-5.49,8.12c-.38,1.18-.47,1.2-1.42.31C2.25,58.88.54,54.41.43,49m67.18,1.46c-.17,5.76-2,10.8-6.64,14.52-2.09,1.66-2.13,1.62-2.94-.79a14,14,0,0,0-3.16-5.35,1.34,1.34,0,0,1-.33-1.58,22.76,22.76,0,0,0-1.62-19.46c-.35-.64-.25-.93.36-1.3a28.47,28.47,0,0,0,3-2.09A1.44,1.44,0,0,1,58,34.17c4.75,2.1,7.4,5.9,8.82,10.68a17.92,17.92,0,0,1,.77,5.6M56.14,70.1c0,5-4,10-9.73,11a10.77,10.77,0,0,1-9.16-2.65A.83.83,0,0,1,37,77.14a16,16,0,0,0,2.26-5.42,1.21,1.21,0,0,1,1-1A21.14,21.14,0,0,0,52.4,61.56c.49-.75.78-.71,1.26,0a13.28,13.28,0,0,1,2.48,8.58M18.58,6.32c-.08,4.39,1.79,8,3.89,11.66A60.12,60.12,0,0,1,27,27.05c.32.86.22,1.32-.71,1.7a17.67,17.67,0,0,0-5.56,3.58c-.6.56-1,.48-1.62,0a15,15,0,0,1-5.53-17.49,29.2,29.2,0,0,1,5-8.55m15.55,84.6c-3.5,0-6.55-1.8-7.56-4.54-.65-1.74-.38-1.68,1-2a15.29,15.29,0,0,0,6.65-3.77c.55-.53.9-.54,1.47,0a12.25,12.25,0,0,0,5.41,2.85,1.13,1.13,0,0,1,1,1.41,5.9,5.9,0,0,1-2.42,4.3,8.35,8.35,0,0,1-5.53,1.81"/><path id="Shape-4" data-name="Shape" class="cls-2" d="M28.92,25.83c-2.15-4.12-5-7.65-7.35-11.45a17.76,17.76,0,0,1-2.69-7.24c0-.36-.25-.84.15-1.09s.68.13,1,.28c3.58,1.72,7.06,3.59,9.75,6.61a2.27,2.27,0,0,1,.51,2.64,21.39,21.39,0,0,0-1.13,8.59c0,.43,0,.86,0,1.29,0,.06-.08.12-.25.37"/></g></g></svg>