<?xml version="1.0" encoding="UTF-8" standalone="no"?>
<!-- Generator: Adobe Illustrator 25.3.1, SVG Export Plug-In . SVG Version: 6.00 Build 0)  -->

<svg
   xmlns:dc="http://purl.org/dc/elements/1.1/"
   xmlns:cc="http://creativecommons.org/ns#"
   xmlns:rdf="http://www.w3.org/1999/02/22-rdf-syntax-ns#"
   xmlns:svg="http://www.w3.org/2000/svg"
   xmlns="http://www.w3.org/2000/svg"
   xmlns:sodipodi="http://sodipodi.sourceforge.net/DTD/sodipodi-0.dtd"
   xmlns:inkscape="http://www.inkscape.org/namespaces/inkscape"
   version="1.1"
   x="0px"
   y="0px"
   viewBox="0 0 262.07747 73.052222"
   xml:space="preserve"
   id="svg2"
   inkscape:version="0.91 r13725"
   sodipodi:docname="BHT_Logo_horizontal_Anthrazit.svg"
   width="262.07745"
   height="73.052223"><metadata
     id="metadata76"><rdf:RDF><cc:Work
         rdf:about=""><dc:format>image/svg+xml</dc:format><dc:type
           rdf:resource="http://purl.org/dc/dcmitype/StillImage" /><dc:title></dc:title></cc:Work></rdf:RDF></metadata><defs
     id="defs74" /><sodipodi:namedview
     pagecolor="#ffffff"
     bordercolor="#666666"
     borderopacity="1"
     objecttolerance="10"
     gridtolerance="10"
     guidetolerance="10"
     inkscape:pageopacity="0"
     inkscape:pageshadow="2"
     inkscape:window-width="1699"
     inkscape:window-height="934"
     id="namedview72"
     showgrid="false"
     fit-margin-top="0"
     fit-margin-bottom="0"
     fit-margin-left="0"
     fit-margin-right="0"
     inkscape:zoom="2.419132"
     inkscape:cx="154.29764"
     inkscape:cy="23.130598"
     inkscape:window-x="0"
     inkscape:window-y="0"
     inkscape:window-maximized="0"
     inkscape:current-layer="svg2" /><style
     type="text/css"
     id="style4">
	.st0{fill:#FFFFFF;}
	.st1{fill:#555555;}
</style><g
     id="Ebene_2"
     transform="matrix(0.90571429,0,0,0.85903374,0,-3.8146977e-6)"><rect
       class="st0"
       width="289.35999"
       height="85.040001"
       id="rect7"
       x="0"
       y="0"
       style="fill:#ffffff" /></g><g
     id="Ebene_1"
     transform="translate(-23.148798,-7.0273177)"><polygon
       class="st1"
       points="98.6,56.54 98.6,33.09 107.52,33.09 107.52,28.05 83.83,28.05 83.83,33.09 92.75,33.09 92.75,56.54 "
       id="polygon10"
       style="fill:#555555" /><path
       class="st1"
       d="m 74.02,28.05 0,11.17 -11.62,0 0,-6.88 12.62,-12.83 -0.74,-0.73 -25.64,26.07 c -0.9,-1.37 -2.4,-2.27 -4.61,-2.76 l 0,-0.08 c 3.3,-1.24 4.94,-3.36 4.94,-6.64 0,-4.36 -3.27,-7.32 -10.31,-7.32 l -10.2,0 0,28.49 8.68,0 -12.01,12.21 0.74,0.73 30.67,-31.19 0,18.25 5.85,0 0,-12.28 11.63,0 0,12.29 5.85,0 0,-28.5 -5.85,0 z m -39.71,4.8 4.42,0 c 3.22,0 4.62,1.04 4.62,3.4 0,2.44 -1.47,3.52 -4.9,3.52 l -4.14,0 0,-6.92 z m 0,11.57 4.18,0 c 3.74,0 5.22,1.16 5.22,3.72 0,2.4 -1.43,3.56 -5.06,3.56 l -4.34,0 0,-7.28 z"
       id="path12"
       inkscape:connector-curvature="0"
       style="fill:#555555" /><g
       id="g14"><path
         class="st1"
         d="m 114.97,38.84 0,-10.78 4.3,0 c 2.18,0 3.37,0.96 3.37,2.72 0,1.22 -0.63,1.97 -1.75,2.35 1.46,0.26 2.18,1.22 2.18,2.63 0,2.06 -1.4,3.08 -3.63,3.08 l -4.47,0 z m 1.42,-1.13 2.91,0 c 1.54,0 2.3,-0.62 2.3,-1.96 0,-1.26 -0.71,-1.96 -2.21,-1.96 l -3,0 0,3.92 z m 0,-5.06 2.84,0 c 1.29,0 1.97,-0.62 1.97,-1.77 0,-1.15 -0.69,-1.69 -2.04,-1.69 l -2.77,0 0,3.46 z"
         id="path16"
         inkscape:connector-curvature="0"
         style="fill:#555555" /><path
         class="st1"
         d="m 132.05,35.09 -6.05,0 c 0.09,2.02 0.96,2.9 2.4,2.9 1.09,0 1.84,-0.5 2.24,-1.52 l 1.35,0 c -0.49,1.68 -1.81,2.6 -3.59,2.6 -2.37,0 -3.81,-1.53 -3.81,-4.28 0,-2.78 1.66,-4.25 3.82,-4.25 2.24,0 3.63,1.44 3.63,4.16 l 0,0.39 z m -1.37,-0.96 c -0.07,-1.68 -0.84,-2.53 -2.27,-2.53 -1.46,0 -2.24,0.98 -2.4,2.53 l 4.67,0 z"
         id="path18"
         inkscape:connector-curvature="0"
         style="fill:#555555" /><path
         class="st1"
         d="m 138.25,30.78 0,1.4 -0.56,0 c -0.94,0 -1.71,0.49 -2.19,1.68 l 0,4.99 -1.38,0 0,-8.06 1.22,0 0.13,1.56 c 0.47,-0.96 1.25,-1.59 2.27,-1.59 0.22,-0.01 0.39,0 0.51,0.02 z"
         id="path20"
         inkscape:connector-curvature="0"
         style="fill:#555555" /><path
         class="st1"
         d="m 139.95,38.84 0,-11.23 1.38,0 0,11.23 -1.38,0 z"
         id="path22"
         inkscape:connector-curvature="0"
         style="fill:#555555" /><path
         class="st1"
         d="m 143.92,38.84 0,-8.06 1.38,0 0,8.06 -1.38,0 z m 1.41,-11.23 0,1.63 -1.46,0 0,-1.63 1.46,0 z"
         id="path24"
         inkscape:connector-curvature="0"
         style="fill:#555555" /><path
         class="st1"
         d="m 154.6,33.62 0,5.22 -1.38,0 0,-5.15 c 0,-1.4 -0.57,-2.02 -1.66,-2.02 -1,0 -1.72,0.57 -2.28,1.26 l 0,5.9 -1.38,0 0,-8.06 1.26,0 0.09,1.01 c 0.68,-0.79 1.5,-1.25 2.6,-1.25 1.84,0.01 2.75,1.29 2.75,3.09 z"
         id="path26"
         inkscape:connector-curvature="0"
         style="fill:#555555" /><path
         class="st1"
         d="m 164.05,35.09 -6.05,0 c 0.09,2.02 0.96,2.9 2.4,2.9 1.09,0 1.84,-0.5 2.24,-1.52 l 1.35,0 c -0.49,1.68 -1.81,2.6 -3.59,2.6 -2.37,0 -3.81,-1.53 -3.81,-4.28 0,-2.78 1.66,-4.25 3.82,-4.25 2.24,0 3.63,1.44 3.63,4.16 l 0,0.39 z m -1.37,-0.96 c -0.07,-1.68 -0.84,-2.53 -2.27,-2.53 -1.46,0 -2.24,0.98 -2.4,2.53 l 4.67,0 z"
         id="path28"
         inkscape:connector-curvature="0"
         style="fill:#555555" /><path
         class="st1"
         d="m 170.25,30.78 0,1.4 -0.56,0 c -0.94,0 -1.71,0.49 -2.19,1.68 l 0,4.99 -1.38,0 0,-8.06 1.22,0 0.13,1.56 c 0.47,-0.96 1.25,-1.59 2.27,-1.59 0.22,-0.01 0.39,0 0.51,0.02 z"
         id="path30"
         inkscape:connector-curvature="0"
         style="fill:#555555" /><path
         class="st1"
         d="m 176.38,38.84 0,-10.78 1.43,0 0,4.56 5.66,0 0,-4.56 1.44,0 0,10.78 -1.44,0 0,-5.02 -5.66,0 0,5.02 -1.43,0 z"
         id="path32"
         inkscape:connector-curvature="0"
         style="fill:#555555" /><path
         class="st1"
         d="m 187.05,34.82 c 0,-2.75 1.74,-4.28 3.96,-4.28 2.21,0 3.94,1.53 3.94,4.28 0,2.72 -1.72,4.25 -3.94,4.25 -2.24,0.01 -3.96,-1.53 -3.96,-4.25 z m 6.52,0 c 0,-2.09 -1.1,-3.16 -2.56,-3.16 -1.47,0 -2.57,1.07 -2.57,3.16 0,2.06 1.1,3.15 2.57,3.15 1.45,0 2.56,-1.09 2.56,-3.15 z"
         id="path34"
         inkscape:connector-curvature="0"
         style="fill:#555555" /><path
         class="st1"
         d="m 196.48,34.82 c 0,-2.66 1.57,-4.28 3.88,-4.28 1.93,0 3.15,0.93 3.46,2.55 l -1.38,0 c -0.25,-0.9 -0.91,-1.43 -2.07,-1.43 -1.46,0 -2.5,1.1 -2.5,3.16 0,2.09 1.03,3.15 2.46,3.15 0.98,0 1.85,-0.47 2.15,-1.5 l 1.35,0 c -0.37,1.69 -1.74,2.6 -3.5,2.6 -2.35,0.01 -3.85,-1.54 -3.85,-4.25 z"
         id="path36"
         inkscape:connector-curvature="0"
         style="fill:#555555" /><path
         class="st1"
         d="m 212.45,33.62 0,5.22 -1.38,0 0,-5.15 c 0,-1.4 -0.57,-2.02 -1.66,-2.02 -1,0 -1.72,0.57 -2.28,1.26 l 0,5.9 -1.38,0 0,-11.22 1.38,0 0,4.15 c 0.66,-0.78 1.49,-1.22 2.57,-1.22 1.84,0 2.75,1.28 2.75,3.08 z"
         id="path38"
         inkscape:connector-curvature="0"
         style="fill:#555555" /><path
         class="st1"
         d="m 214.25,36.47 1.38,0 c 0.12,1.1 0.81,1.54 2.16,1.54 1.24,0 1.8,-0.54 1.8,-1.28 0,-0.69 -0.47,-1.03 -1.49,-1.28 l -1.47,-0.37 c -1.26,-0.31 -2.07,-0.97 -2.07,-2.21 0,-1.35 1.22,-2.34 3.1,-2.34 1.87,0 3.03,0.78 3.18,2.55 l -1.34,0 c -0.12,-1.1 -0.74,-1.49 -1.84,-1.49 -1.12,0 -1.72,0.51 -1.72,1.21 0,0.69 0.43,0.99 1.25,1.21 l 1.49,0.37 c 1.32,0.32 2.3,0.97 2.3,2.31 0,1.38 -1.15,2.38 -3.18,2.38 -2.18,0.01 -3.37,-0.86 -3.55,-2.6 z"
         id="path40"
         inkscape:connector-curvature="0"
         style="fill:#555555" /><path
         class="st1"
         d="m 222.32,34.82 c 0,-2.66 1.57,-4.28 3.88,-4.28 1.93,0 3.15,0.93 3.46,2.55 l -1.38,0 c -0.25,-0.9 -0.91,-1.43 -2.07,-1.43 -1.46,0 -2.5,1.1 -2.5,3.16 0,2.09 1.03,3.15 2.46,3.15 0.98,0 1.85,-0.47 2.15,-1.5 l 1.35,0 c -0.37,1.69 -1.74,2.6 -3.5,2.6 -2.35,0.01 -3.85,-1.54 -3.85,-4.25 z"
         id="path42"
         inkscape:connector-curvature="0"
         style="fill:#555555" /><path
         class="st1"
         d="m 238.28,33.62 0,5.22 -1.38,0 0,-5.15 c 0,-1.4 -0.57,-2.02 -1.66,-2.02 -1,0 -1.72,0.57 -2.28,1.26 l 0,5.9 -1.38,0 0,-11.22 1.38,0 0,4.15 c 0.66,-0.78 1.49,-1.22 2.57,-1.22 1.84,0 2.75,1.28 2.75,3.08 z"
         id="path44"
         inkscape:connector-curvature="0"
         style="fill:#555555" /><path
         class="st1"
         d="m 245.98,30.78 1.38,0 0,8.06 -1.26,0 -0.09,-1.01 c -0.66,0.79 -1.47,1.25 -2.57,1.25 -1.8,0 -2.71,-1.27 -2.71,-3.08 l 0,-5.22 1.38,0 0,5.16 c 0,1.4 0.57,2 1.62,2 0.97,0 1.69,-0.56 2.25,-1.25 l 0,-5.91 z"
         id="path46"
         inkscape:connector-curvature="0"
         style="fill:#555555" /><path
         class="st1"
         d="m 249.96,38.84 0,-11.23 1.38,0 0,11.23 -1.38,0 z"
         id="path48"
         inkscape:connector-curvature="0"
         style="fill:#555555" /><path
         class="st1"
         d="m 260.86,35.09 -6.05,0 c 0.09,2.02 0.96,2.9 2.4,2.9 1.09,0 1.84,-0.5 2.24,-1.52 l 1.35,0 c -0.49,1.68 -1.81,2.6 -3.59,2.6 -2.37,0 -3.81,-1.53 -3.81,-4.28 0,-2.78 1.66,-4.25 3.82,-4.25 2.24,0 3.63,1.44 3.63,4.16 l 0,0.39 z m -1.37,-0.96 c -0.07,-1.68 -0.84,-2.53 -2.27,-2.53 -1.46,0 -2.24,0.98 -2.4,2.53 l 4.67,0 z"
         id="path50"
         inkscape:connector-curvature="0"
         style="fill:#555555" /><path
         class="st1"
         d="m 117.95,46.34 c -1,0 -1.38,0.37 -1.38,1.34 l 0,0.77 1.94,0 0,1.1 -1.94,0 0,6.96 -1.38,0 0,-6.96 -1.28,0 0,-1.1 1.28,0 0,-0.82 c 0,-1.71 1.07,-2.41 2.71,-2.41 0.38,0 0.74,0.03 0.97,0.07 l 0,1.06 -0.92,0 z"
         id="path52"
         inkscape:connector-curvature="0"
         style="fill:#555555" /><path
         class="st1"
         d="m 125.27,48.44 1.38,0 0,8.06 -1.26,0 -0.09,-1.01 c -0.66,0.79 -1.47,1.25 -2.57,1.25 -1.79,0 -2.71,-1.27 -2.71,-3.08 l 0,-5.22 1.38,0 0,5.16 c 0,1.4 0.57,2 1.62,2 0.97,0 1.69,-0.56 2.25,-1.25 l 0,-5.91 z m -2.75,-3 0,1.47 -1.35,0 0,-1.47 1.35,0 z m 2.98,0 0,1.47 -1.34,0 0,-1.47 1.34,0 z"
         id="path54"
         inkscape:connector-curvature="0"
         style="fill:#555555" /><path
         class="st1"
         d="m 133.38,48.44 0,1.4 -0.56,0 c -0.94,0 -1.71,0.49 -2.19,1.68 l 0,4.99 -1.38,0 0,-8.06 1.22,0 0.13,1.55 c 0.47,-0.96 1.25,-1.59 2.27,-1.59 0.21,0 0.39,0.02 0.51,0.03 z"
         id="path56"
         inkscape:connector-curvature="0"
         style="fill:#555555" /><path
         class="st1"
         d="m 146.37,45.72 0,1.19 -3.4,0 0,9.59 -1.43,0 0,-9.59 -3.4,0 0,-1.19 8.23,0 z"
         id="path58"
         inkscape:connector-curvature="0"
         style="fill:#555555" /><path
         class="st1"
         d="m 154.01,52.75 -6.05,0 c 0.09,2.02 0.96,2.9 2.4,2.9 1.09,0 1.84,-0.5 2.24,-1.52 l 1.35,0 c -0.49,1.68 -1.81,2.6 -3.59,2.6 -2.37,0 -3.81,-1.53 -3.81,-4.28 0,-2.78 1.66,-4.25 3.82,-4.25 2.24,0 3.63,1.44 3.63,4.16 l 0,0.39 z m -1.36,-0.95 c -0.07,-1.68 -0.84,-2.53 -2.27,-2.53 -1.46,0 -2.24,0.98 -2.4,2.53 l 4.67,0 z"
         id="path60"
         inkscape:connector-curvature="0"
         style="fill:#555555" /><path
         class="st1"
         d="m 155.55,52.49 c 0,-2.66 1.57,-4.28 3.88,-4.28 1.93,0 3.15,0.93 3.46,2.55 l -1.38,0 c -0.25,-0.9 -0.91,-1.43 -2.07,-1.43 -1.46,0 -2.5,1.1 -2.5,3.16 0,2.09 1.03,3.15 2.46,3.15 0.98,0 1.85,-0.47 2.15,-1.5 l 1.35,0 c -0.37,1.69 -1.74,2.6 -3.5,2.6 -2.35,0 -3.85,-1.55 -3.85,-4.25 z"
         id="path62"
         inkscape:connector-curvature="0"
         style="fill:#555555" /><path
         class="st1"
         d="m 171.52,51.28 0,5.22 -1.38,0 0,-5.15 c 0,-1.4 -0.57,-2.02 -1.66,-2.02 -1,0 -1.72,0.57 -2.28,1.26 l 0,5.9 -1.38,0 0,-11.21 1.38,0 0,4.15 c 0.66,-0.78 1.49,-1.22 2.57,-1.22 1.83,0 2.75,1.28 2.75,3.07 z"
         id="path64"
         inkscape:connector-curvature="0"
         style="fill:#555555" /><path
         class="st1"
         d="m 180.75,51.28 0,5.22 -1.38,0 0,-5.15 c 0,-1.4 -0.57,-2.02 -1.66,-2.02 -1,0 -1.72,0.57 -2.28,1.26 l 0,5.9 -1.38,0 0,-8.06 1.26,0 0.09,1.01 c 0.68,-0.79 1.5,-1.25 2.6,-1.25 1.83,0.02 2.75,1.3 2.75,3.09 z"
         id="path66"
         inkscape:connector-curvature="0"
         style="fill:#555555" /><path
         class="st1"
         d="m 183.26,56.5 0,-8.06 1.38,0 0,8.06 -1.38,0 z m 1.42,-11.22 0,1.63 -1.46,0 0,-1.63 1.46,0 z"
         id="path68"
         inkscape:connector-curvature="0"
         style="fill:#555555" /><path
         class="st1"
         d="m 192.58,56.5 -2.72,-4.03 -1.25,1.22 0,2.81 -1.37,0 0,-11.22 1.37,0 0,6.83 3.75,-3.66 1.62,0 -3.16,3.09 3.3,4.97 -1.54,0 z"
         id="path70"
         inkscape:connector-curvature="0"
         style="fill:#555555" /></g></g></svg>
